Patient4_TMGait_0pt6_02_left_06_EMG.mot
version=1
nRows=37
nColumns=33
inDegrees=no
endheader
time	1LAddLong	2LGlutMax	3LGlutMed	4LIliopsoas	5LSemiMemb	6LBicFemLong	7LRecFem	8LVastMed	9LVastLat	10LGasMed	11LTibAnt	12lTibPost	13LPeroneusLong	14LSol	15LExtDigLong	16LFlexDigLong	17RAddLong	18RGlutMax	19RGlutMed	20RIliopsoas	21RSemiMemb	22RBicFemLong	23RRecFem	24RVastMed	25RVastLat	26RGasMed	27RTibAnt	28RTibPost	29RPeroneusLong	30RSol	31RExtDigLong	32RFlexDigLong
7.657	0.031281	1.2094	0.22919	0.014954	-0.048676	-0.27512	0.53818	0.026855	-0.11139	-0.063934	0.032196	-0.027313	-0.039978	-0.21027	0.040894	-0.014038	0.061951	0.2739	0.045929	0.13184	-0.06897	-0.13626	0.76797	0.21286	-0.014496	-0.00824	0.037384	-0.007324	0.014191	0.026245	-0.002289	-0.012665
7.658	0.031738	1.1526	0.22507	0.003204	0.0177	0.04303	0.41489	0.030212	0.14435	-0.093994	0.020752	0.056915	-0.016632	0.13626	0.046844	0.037842	0.082703	0.1796	-0.12497	0.081024	-0.05249	-0.090332	0.78995	0.10147	-0.016632	-0.000763	-0.18555	-0.00412	0.084534	-0.037079	-0.000916	-0.00946
7.659	0.028687	1.1324	0.30472	0.010071	0.007629	0.20142	0.65262	0.027161	0.40741	-0.097504	0.029144	-0.053253	0.016327	0.33341	0.028229	0.052338	0.091553	0.30075	-0.16632	-0.007629	-0.011597	-0.028687	0.77026	0.21316	-0.010376	0.019836	-0.37384	-0.005951	0.16617	-0.26474	0	0.000458
7.66	0.012817	1.0771	0.18982	0.023193	-0.054016	0.19882	0.75394	0.028992	0.3421	-0.066376	0.022736	-0.039368	0.019684	0.47073	-0.003052	0.048065	0.070648	0.27618	-0.16159	-0.017548	-0.007172	-0.00061	0.73456	0.21759	-0.000458	0.021667	-0.86182	-0.001984	0.14786	-0.3006	0.002441	-0.007324
7.661	0.016022	1.0429	0.10757	0.014496	-0.12314	0.19501	0.61661	0.014954	0.088196	-0.046539	0.014191	0.027618	0.006409	0.33112	-0.007935	0.056763	-0.010681	0.30991	-0.10025	-0.000763	-0.058594	0.056152	0.72174	0.15213	-0.016937	0.008698	-0.48416	-0.011749	-0.044708	-0.2153	0.001068	-0.008698
7.662	0.028839	0.92697	0.18219	-0.006409	-0.1796	-0.1619	0.48935	0.023651	0.002594	-0.000305	0.007782	0.021362	-0.011292	-0.017395	0.019073	0.035553	-0.016479	0.22964	-0.036469	0.023499	-0.026398	0.11246	0.71396	0.097351	-0.011292	-0.002441	0.071411	-0.008087	-0.10574	-0.17395	-0.002136	-0.009918
7.663	0.036316	0.8635	0.112	0.003967	-0.12909	-0.1355	0.28458	0.023499	0.041656	0.024719	0.013885	0.019836	-0.01709	-0.13245	-0.004578	0.005035	-0.009918	0.09491	-0.015564	0.11734	-0.027466	0.17624	0.62164	0.081024	0.016479	0.003052	-0.31799	-0.014191	0.10239	-0.066681	-0.001221	-0.017548
7.664	0.043793	0.89416	0.10178	-0.000458	-0.070953	-0.31876	0.065613	0.010376	0.11169	0.030975	0.016785	0.029755	0.022736	-0.17319	-0.009308	0.018005	0.032654	0.022888	-0.011139	0.21759	0.043488	0.091095	0.61951	0.002747	0.005188	0.002441	-0.73379	-0.00824	0.034485	0.14389	-0.003815	-0.015411
7.665	0.036774	0.86807	0.058594	0.013428	-0.14633	-0.32379	-0.025482	0.021667	0.12543	0.020447	0.018768	0.032501	0.055847	-0.082092	-0.033264	0.075378	0.11139	0.026703	0.024414	0.30899	0.071564	0.016937	0.61737	0.002441	0.003357	-0.009918	-1.0318	-0.009918	-0.066223	0.30045	0.002899	-0.015259
7.666	0.037384	0.82077	-0.006256	0.009918	-0.041809	-0.23666	-0.072784	0.01358	0.094147	0.028381	0.026093	0.042877	0.026093	0.023346	-0.036316	0.023804	0.11261	-0.023804	0.042877	0.36789	0.046997	0.026703	0.57053	-0.040436	0.014038	-0.009155	-0.5809	-0.007629	-0.09201	0.50156	-0.003052	-0.012054
7.667	0.042572	0.75668	0.031281	0.003815	0.043793	-0.12558	-0.073547	0.006409	-0.079498	0.031891	0.034332	0.034637	0.00412	0.078125	0.023804	-0.058441	0.10162	-0.10437	-0.34653	0.23315	-0.006409	0.032196	0.5426	0.008087	0.051575	0.00885	-0.079498	-0.014343	0.082397	0.30304	-0.000153	-0.004578
7.668	0.053101	0.63156	0.13397	0.001373	0.16052	0.02243	-0.14908	0.034485	-0.39856	0.006561	0.063629	0.050812	-0.04776	0.10483	0.097809	-0.099182	0.027924	-0.095062	-0.71625	0.14801	-0.025635	0.062714	0.52078	0.048981	0.052948	0.015106	-0.24231	-0.006866	0.2449	0.033722	0.000153	-0.007172
7.669	0.048218	0.63431	0.18112	-0.009308	0.15823	-0.027924	-0.20874	0.030212	-0.36926	-0.043335	0.034485	0.066681	-0.035858	-0.050354	0.059357	0.009308	0.024872	-0.0914	-0.91904	0.052948	-0.050964	0.041351	0.47699	0.008392	0.022736	0.005493	-0.13748	-0.007477	0.1355	-0.044556	-0.002136	-0.010529
7.67	0.029602	0.61417	0.054016	0.009613	0.051117	-0.064545	-0.27252	0.007935	-0.19898	-0.12848	0.017548	0.068207	0.058136	-0.004578	0.000458	0.25253	0.015564	-0.14862	-0.73669	-0.061035	-0.064087	-0.029907	0.56244	0.023499	0.02121	-0.006104	0.41992	-0.007782	-0.042114	-0.059357	-0.001221	-0.007477
7.671	0.017548	0.51514	0.018921	-0.00824	0.04425	0.058594	-0.38086	-0.002136	-0.090942	-0.15442	0.016022	0.052795	0.041962	0.059357	-0.016022	-0.23148	0.032959	-0.20599	-0.62988	-0.10407	-0.057831	-0.057678	0.56305	-0.023193	-0.020142	0.002594	0.047607	-0.001984	0.034485	-0.058136	-0.000305	-0.005188
7.672	0.018921	0.50812	0.083313	-0.002899	0.0177	0.15427	-0.49316	-0.00412	-0.11581	-0.15549	0.038757	0.06485	-0.051575	-0.00473	-0.030365	0.17532	0.055237	-0.21744	-0.55542	-0.093079	-0.049896	-0.026245	0.58197	-0.020142	-0.004425	-0.009155	-0.5339	-0.008392	-0.076447	0.024109	-0.006561	-0.012817
7.673	0.02182	0.46005	0.061493	0.041046	-0.023499	0.1355	-0.63004	0.012207	-0.092468	-0.057831	0.036774	0.0737	-0.098114	-0.048828	-0.02243	0.34927	0.022125	-0.20081	-0.32242	-0.13306	-0.064545	0.020905	0.60638	-0.051117	-0.027466	-0.007477	0.2478	-0.001221	-0.21988	-0.085297	-0.002747	-0.014954
7.674	0.024567	0.34439	-0.12695	0.020905	-0.056152	0.1178	-0.65506	0.002594	-0.02121	0.033569	0.029602	0.077515	-0.12054	0.008545	0.012054	0.43213	-0.018311	-0.34882	-0.37842	-0.11826	-0.087891	-0.024719	0.62012	-0.072327	-0.019836	0.005035	0.83923	-0.00824	-0.1619	-0.079956	-0.005188	-0.013733
7.675	0.028534	0.39261	-0.23392	-0.002594	-0.1088	-0.16464	-0.64301	0.025177	-0.019989	0.058746	0.011292	0.005646	-0.05722	0.15671	0.011292	-0.18738	-0.046082	-0.37628	-0.35492	-0.12512	-0.086365	-0.075073	0.5896	-0.082245	-0.011292	0.017853	0.93292	-0.005188	-0.049896	-0.003052	-0.003967	-0.014038
7.676	0.023499	0.62012	-0.14679	-0.00946	-0.10544	-0.47913	-0.63339	0.032043	0.013733	0.12695	-0.001221	0.037842	0.10986	0.41733	-0.015411	-0.52353	-0.031433	-0.32379	-0.36728	-0.099945	-0.12512	-0.11978	0.56107	-0.11215	-0.002747	0.019836	0.62546	-0.001068	0.13733	-0.064087	-0.00473	-0.009003
7.677	0.03891	0.64728	-0.086365	0.007782	-0.076447	-0.38071	-0.5658	0.020294	-0.023499	0.11322	0.016022	0.060577	0.17364	0.39948	0.004578	1.0403	-0.051117	-0.3006	-0.36377	-0.044861	-0.1329	-0.10101	0.51148	-0.095825	-0.017548	0.014191	-0.35614	-0.004883	0.11246	0.001221	-0.005493	-0.007935
7.678	0.032959	0.74905	0.068512	0.010071	-0.02243	-0.1442	-0.53375	0.011597	0.018005	0.13809	-0.019379	0.01709	0.12848	-0.10742	-0.00061	-0.94421	-0.081482	-0.25726	-0.40253	-0.054626	-0.11398	-0.046082	0.53696	-0.015259	-0.010071	0.000153	-0.63446	-0.007629	-0.07309	0.11337	-0.002441	-0.00946
7.679	0.010529	0.52612	-0.016632	0.005035	0.010529	0.13214	-0.54291	0.01297	0.024109	0.13351	0.027618	0.11063	0.053864	-0.48706	-0.035095	-0.23514	-0.04303	-0.2771	-0.41122	-0.004883	-0.059509	-0.11581	0.53711	-0.010681	0.000458	-0.008698	-0.32059	-0.007477	-0.16678	0.15366	-0.002899	-0.010681
7.68	0.010986	0.39139	-0.13748	-0.002136	-0.04776	0.21042	-0.54962	0.012817	-0.031433	0.11307	0.036926	0.45136	0.013428	-0.32227	-0.045319	-0.061951	0.027008	-0.28809	-0.44296	0.035706	-0.05249	-0.12451	0.50888	0.005035	0.004578	-0.00473	0.26321	-0.003662	-0.12604	0.034332	-0.004578	-0.016022
7.681	0.011292	0.47028	-0.17685	-0.009613	-0.069733	0.31586	-0.51392	0.018005	-0.018768	0.19012	-0.009003	-0.14984	0.012665	0.36484	-0.054321	0.31403	0.10574	-0.22888	-0.33493	-0.027008	-0.07019	0.052338	0.43198	0.015259	0.001984	0.000763	0.27969	-0.000763	-0.17593	-0.009155	0.00061	-0.016022
7.682	0.012665	0.59128	-0.22705	-0.010834	-0.010071	0.37781	-0.49057	-0.004272	-0.010529	0.1178	0.020294	0.21118	0.033722	0.27588	-0.025177	0.009308	0.14847	-0.22049	-0.37766	-0.024261	-0.10956	0.18539	0.45624	-0.02533	-0.005646	0.006714	-0.062561	-0.003204	-0.14114	0.00473	-0.00061	-0.014191
7.683	0.023956	0.62805	-0.25925	-0.007324	0.034943	0.29221	-0.47806	0.012054	0.028076	0.037842	0.001831	-0.085907	0.050964	0.14557	0.013733	0.17853	0.10529	-0.23117	-0.58411	0.041046	-0.090332	0.1268	0.44083	0.001526	-0.035248	0.001831	-0.121	-0.007935	-0.10666	0.065918	-0.001068	-0.011749
7.684	0.027161	0.77682	-0.47852	-0.005798	0.016632	0.13886	-0.5127	0.004272	0.1149	-0.013733	0.006714	-0.10727	0.056305	0.033722	0.027466	0.024567	0.095978	-0.20935	-0.69733	0.11032	-0.056763	0.041656	0.44876	-0.034027	-0.025787	-0.003357	-0.055542	-0.002899	-0.089417	0.13931	-0.002441	-0.007172
7.685	0.026245	0.78766	-0.50293	-0.015259	-0.014038	-0.12024	-0.4744	-0.005951	0.19608	-0.022888	0.034485	-0.067596	0.036163	-0.19073	-0.009003	-0.068054	0.08606	-0.1358	-0.59982	0.1709	-0.026855	0.092621	0.44418	0.054321	0.002747	-0.011749	0.10239	0.001526	-0.13626	0.10132	-0.003204	-0.012665
7.686	0.019989	0.80521	-0.35294	0.024719	-0.033417	-0.18066	-0.41321	0.002289	0.20126	0.02121	0.067291	-0.04364	0.01297	-0.19745	-0.013885	-0.071869	0.12817	-0.047607	-0.41107	0.14954	-0.007172	0.008392	0.40161	0.03067	0.019226	-0.00946	0.20493	-0.007019	-0.12817	0.007172	-0.004883	-0.012054
7.687	0.022736	0.77972	-0.18616	0.008698	-0.037231	-0.30594	-0.42496	-0.001221	0.082703	0.15228	0.072937	-0.032654	-0.019226	-0.22553	0.065002	-0.51865	0.11139	0.002289	-0.25696	0.002136	0.035553	-0.10925	0.38498	0.024719	0.018311	-0.014801	0.077667	-0.001221	-0.10132	0.00885	-0.000458	-0.01236
7.688	0.00885	0.78156	-0.052948	-0.005341	-0.009155	-0.44876	-0.44022	0.011902	0.025787	0.16937	0.03479	-0.034485	-0.00946	-0.091095	0.060425	-0.3331	-0.019836	0.058136	-0.49194	-0.14923	0.030518	-0.19409	0.40924	-0.017853	0.014191	-0.008392	-0.10635	0.005493	-0.045624	-0.029297	-0.003662	-0.019836
7.689	0.011292	0.79102	-0.063171	0.010223	0.007172	-0.34668	-0.47684	0.018616	0.037537	0.17487	-0.094452	-0.027618	0.037994	-0.074158	0.041199	-0.028839	-0.1561	0.10239	-0.5806	-0.098877	0.03006	-0.11643	0.41321	0.002899	-0.013733	-0.009613	0.050507	0.001526	-0.10834	-0.036621	-0.006714	-0.011597
7.69	0.003967	0.72281	-0.16068	0.006714	-0.021667	-0.27618	-0.42923	0.00412	0.055695	0.25101	-0.035553	-0.039368	0.032043	-0.17731	0.020752	0.43121	-0.22553	0.177	-0.54047	0.080109	-0.019989	-0.09964	0.41138	-0.010529	-0.012054	-0.010986	0.35645	0.013275	-0.20844	-0.021515	0.000916	-0.01709
7.691	-0.005951	0.63736	-0.15595	-0.011444	-0.056458	-0.021667	-0.36529	0.028992	0.15121	0.31311	-0.019684	-0.045471	0.066528	0.046692	-0.013733	-0.24963	-0.25772	0.30029	-0.52017	0.14587	-0.045776	-0.085449	0.42114	0.010834	-0.01709	-0.007935	0.35736	0.000153	-0.15839	0.0177	-0.005951	-0.012665
7.692	-0.022583	0.59418	-0.083313	-0.003662	-0.079193	0.18082	-0.25131	0.018005	0.21835	0.15778	0.021515	-0.03952	0.055542	0.12924	-0.050507	0.037689	-0.22324	0.29709	-0.21103	0.003815	-0.049591	-0.011902	0.38437	-0.008087	0.000763	-0.004883	0.41321	0.002747	-0.16357	0.004272	-0.004425	-0.018158
7.693	-0.022736	0.58411	-0.011444	-0.00351	-0.051727	0.22415	-0.24902	0.010223	0.24551	0.061798	-0.000458	-0.051575	0.081024	0.025482	-0.1413	0.11826	-0.19058	0.45502	-0.060272	0.016632	-0.062256	0.065613	0.31204	-0.035095	0.018311	-0.005035	0.20371	0.005951	-0.1091	0.037689	-0.002136	-0.017395
